<svg width="45" height="24" viewBox="0 0 45 24" fill="none" xmlns="http://www.w3.org/2000/svg">
<path d="M43 20.75C43.6904 20.75 44.25 21.3096 44.25 22C44.25 22.6904 43.6904 23.25 43 23.25H2C1.30964 23.25 0.75 22.6904 0.75 22C0.75 21.3096 1.30964 20.75 2 20.75H43Z" fill="white"/>
<path d="M43 10.75C43.6904 10.75 44.25 11.3096 44.25 12C44.25 12.6904 43.6904 13.25 43 13.25H2C1.30964 13.25 0.75 12.6904 0.75 12C0.75 11.3096 1.30964 10.75 2 10.75H43Z" fill="white"/>
<path d="M43 0.75C43.6904 0.75 44.25 1.30964 44.25 2C44.25 2.69036 43.6904 3.25 43 3.25H2C1.30964 3.25 0.75 2.69036 0.75 2C0.75 1.30964 1.30964 0.75 2 0.75H43Z" fill="white"/>
</svg>
